<svg width="26" height="24" viewBox="0 0 26 24" fill="none" xmlns="http://www.w3.org/2000/svg">
<path d="M12.9608 0.470215C15.0023 0.470215 16.9601 1.23593 18.4036 2.5989C19.8472 3.96187 20.6582 5.81046 20.6582 7.73799V8.94929H25.7897V11.3719H24.2926L23.3214 22.3741C23.2947 22.6768 23.1486 22.959 22.9119 23.1647C22.6753 23.3704 22.3654 23.4847 22.0437 23.4848H3.87789C3.5562 23.4847 3.24631 23.3704 3.00965 23.1647C2.77299 22.959 2.62683 22.6768 2.60013 22.3741L1.62769 11.3719H0.131836V8.94929H5.26341V7.73799C5.26341 5.81046 6.07439 3.96187 7.51792 2.5989C8.96146 1.23593 10.9193 0.470215 12.9608 0.470215ZM21.7178 11.3719H4.20246L5.05815 21.0623H20.8621L21.7178 11.3719ZM14.2437 13.7945V18.6397H11.6779V13.7945H14.2437ZM9.1121 13.7945V18.6397H6.54631V13.7945H9.1121ZM19.3753 13.7945V18.6397H16.8095V13.7945H19.3753ZM12.9608 2.89281C11.6442 2.89281 10.378 3.37059 9.42408 4.22732C8.47014 5.08406 7.90145 6.25421 7.83562 7.49573L7.8292 7.73799V8.94929H18.0924V7.73799C18.0924 6.49491 17.5863 5.29938 16.679 4.39868C15.7716 3.49798 14.5323 2.96102 13.2174 2.89886L12.9608 2.89281Z" fill="black"/>
</svg>
