<svg width="26" height="18" viewBox="0 0 26 18" fill="none" xmlns="http://www.w3.org/2000/svg">
<path d="M13.1713 1.8872C11.7696 0.916327 9.93497 0.377487 8.03082 0.377441C7.02297 0.378232 6.02528 0.529153 5.09516 0.821521C4.16503 1.11389 3.32085 1.54193 2.61118 2.08101C-0.415737 4.37084 -0.41445 7.95241 2.61375 10.2326L12.0457 17.3375C12.2644 17.6273 12.6863 17.8143 13.1713 17.8143C13.3704 17.8128 13.5663 17.7762 13.7433 17.7074C13.9202 17.6386 14.0733 17.5394 14.1901 17.418L23.7289 10.2326C26.7571 7.95144 26.7571 4.37084 23.7263 2.07713C23.017 1.53904 22.1735 1.11187 21.2443 0.820178C20.315 0.528485 19.3185 0.378022 18.3118 0.377441C16.4077 0.377676 14.5731 0.91649 13.1713 1.8872ZM21.9073 3.44735C23.918 4.96971 23.9192 7.34773 21.9099 8.86233L13.1713 15.445L4.43274 8.86233C2.42337 7.34773 2.42465 4.96971 4.43016 3.45123C5.40783 2.71864 6.68652 2.31552 8.03082 2.31552C9.37512 2.31552 10.6487 2.71864 11.6186 3.44929L12.2618 3.93381C12.3812 4.02388 12.5229 4.09533 12.679 4.14408C12.8351 4.19284 13.0024 4.21793 13.1713 4.21793C13.3403 4.21793 13.5075 4.19284 13.6636 4.14408C13.8197 4.09533 13.9614 4.02388 14.0808 3.93381L14.724 3.44929C16.6691 1.98701 19.9648 1.99089 21.9073 3.44735Z" fill="black"/>
</svg>
