<svg width="26" height="25" viewBox="0 0 26 25" fill="none" xmlns="http://www.w3.org/2000/svg">
<path d="M13.0658 12.6139C14.767 12.6139 16.3985 11.9758 17.6015 10.84C18.8044 9.70422 19.4802 8.16373 19.4802 6.55745C19.4802 4.95117 18.8044 3.41069 17.6015 2.27488C16.3985 1.13907 14.767 0.500977 13.0658 0.500977C11.3645 0.500977 9.73299 1.13907 8.53005 2.27488C7.3271 3.41069 6.65129 4.95117 6.65129 6.55745C6.65129 8.16373 7.3271 9.70422 8.53005 10.84C9.73299 11.9758 11.3645 12.6139 13.0658 12.6139ZM17.3421 6.55745C17.3421 7.6283 16.8915 8.65529 16.0896 9.4125C15.2876 10.1697 14.1999 10.5951 13.0658 10.5951C11.9316 10.5951 10.8439 10.1697 10.042 9.4125C9.23999 8.65529 8.78945 7.6283 8.78945 6.55745C8.78945 5.4866 9.23999 4.45961 10.042 3.7024C10.8439 2.9452 11.9316 2.5198 13.0658 2.5198C14.1999 2.5198 15.2876 2.9452 16.0896 3.7024C16.8915 4.45961 17.3421 5.4866 17.3421 6.55745ZM25.8947 22.708C25.8947 24.7269 23.7566 24.7269 23.7566 24.7269H2.37497C2.37497 24.7269 0.236816 24.7269 0.236816 22.708C0.236816 20.6892 2.37497 14.6328 13.0658 14.6328C23.7566 14.6328 25.8947 20.6892 25.8947 22.708ZM23.7566 22.7C23.7544 22.2033 23.4273 20.7094 21.9776 19.3406C20.5835 18.0244 17.96 16.6516 13.0658 16.6516C8.16938 16.6516 5.548 18.0244 4.15392 19.3406C2.70425 20.7094 2.37925 22.2033 2.37497 22.7H23.7566Z" fill="black"/>
</svg>
